<?xml version="1.0" encoding="utf-8"?>
<!-- Generator: Adobe Illustrator 25.2.0, SVG Export Plug-In . SVG Version: 6.00 Build 0)  -->
<svg version="1.0" id="Camada_1" xmlns="http://www.w3.org/2000/svg" xmlns:xlink="http://www.w3.org/1999/xlink" x="0px" y="0px"
	 viewBox="0 0 595.28 595.28" style="enable-background:new 0 0 595.28 595.28;" xml:space="preserve">
<style type="text/css">
	.st0{fill:none;stroke:#000000;stroke-width:2;stroke-miterlimit:10;}
</style>
<g>
	<path class="st0" d="M544.72,192.46c-0.26,0.55-0.8-0.15-1.19-1.55c-0.39-1.41-1.76-5.02-2.13-5.05c-0.37-0.03-0.88,2.24-1.02,3.61
		c-0.14,1.37-0.72,5.27-0.86,5.66c-0.14,0.39-1.19,0.49-1.8-1.15c-0.61-1.64-2.32-6.11-2.59-5.74c-0.28,0.37-0.68,2.01-0.79,2.99
		c-0.12,0.98-0.48,3.62-0.58,3.67c-0.1,0.05-0.74-0.2-1.2-0.68c-0.46-0.48-1.96-0.81-2.16,0.45c-0.21,1.26-0.88,5.01-0.98,5.54
		c-0.1,0.53-1.15,2.4-1.86,3.11c0,0,0,0-0.65-1.16c-0.49-0.88-0.49-0.88-0.49-0.88c-0.31-1.09-0.92-3.42-1.36-5.19
		c0,0,0,0-0.21-1.63c-0.22-1.69-0.22-1.69-0.22-1.69c-1.38-0.02-2.59,1.42-2.69,3.19c-0.1,1.77-0.43,6.49-0.54,6.52
		c-0.1,0.03-0.6-0.07-0.87-0.3c-0.27-0.23-1.06-1.62-1.46-2.45c-0.4-0.82-1.36-3.6-1.7-4.24c-0.34-0.64-2.53-0.46-2.66,0.1
		c-0.13,0.56-0.55,2.08-0.64,2.08c-0.09,0.01-0.44-0.36-0.58-0.82c-0.14-0.46-0.66-2.31-1.11-3.08c0,0,0,0-0.79,0.17
		c-0.44,0.1-0.89,0.76-1.09,1.27c-0.23,0.6-0.23,0.6-0.23,0.6c-0.03,0.75-0.12,1.38-0.2,1.4c-0.08,0.02-0.46-0.29-0.64-0.73
		c-0.18-0.44-0.52-2.06-0.76-2.63c-0.25-0.58-2.09-0.33-2.2,0.43c-0.11,0.76-0.51,2.77-0.63,2.79s-0.82-1.08-1.3-2.49
		c0,0,0,0-0.12-1.31c-0.1-1.09-0.1-1.09-0.1-1.09c-0.76-0.33-1.9-0.72-2.54-0.87c-0.63-0.15-3.09,3.67-3.94,8.87
		c-0.85,5.2-1.21,19.05-1.14,19.11c0.07,0.06,1.86,0.42,3.86,0.81s7.94,4.71,9.67,6.15c1.73,1.44,8.06,4.3,9.28,4.59
		c0,0,0,0,1.01,0.48c0.61,0.29,1.37,0.98,1.41,1.54c0.04,0.61-0.53,1.6-1.08,1.84c-0.89,0.37-0.89,0.37-0.89,0.37
		c-1.15-0.02-3.91-0.12-6.12-0.22c-2.21-0.1-8.02,0.6-7.6,1.8c0.42,1.2,2.16,3.72,2.93,2.99c0.77-0.73,2.49-2.97,2.61-2.95
		s0.59,0.73,0.78,1.54c0.2,0.81,0.77,2.98,0.84,3.02c0.07,0.04,0.54-0.3,0.88-0.87s1.96-1.43,2.5-0.09c0,0,0,0,0.09,1.12
		c0.13,1.57,0.13,1.57,0.13,1.57c-0.18,1.74-0.32,3.86-0.32,4.71c0,0,0,0,0.88,0.11c1.03,0.13,1.03,0.13,1.03,0.13
		c1.16-0.01,2.29-0.23,2.5-0.48s1.16-0.77,1.3-0.2c0.14,0.56,0.91,2,1.19,2.29c0.28,0.29,1.21,0.86,1.42,0.64s0.88-0.96,1.01-1.12
		c0.13-0.16,0.66-0.45,0.9-0.3c0.23,0.15,0.84,1.68,1.1,2.92c0,0,0,0,1.65,0.21c0.4,0.05,0.4,0.05,0.4,0.05
		c0.25,1.39,0.55,2.92,0.65,3.4s2.25,1.41,3.14,1.81c0.88,0.4-1.51,4.65-3.26,6.67c-1.75,2.02-9.74,6.68-12.66,7.32
		c-2.92,0.64-12.3-2.8-14.6-4.13s-11.28-6.53-14.96-8.42s-17.68-4.76-21.48-5.65c-3.79-0.88-13.75-5.28-14.43-5.57
		c-0.69-0.29-3.3,3.63-4.94,6.2c-1.64,2.57-10.62,9.84-14.23,12.31c-3.62,2.47-15.56,9.18-18.08,10.18
		c-2.52,1-11.07,4.26-13.34,5.23s-8.12,4.94-8.62,5.42c-0.51,0.48-1.5,4.25-2.05,6.45c-0.55,2.2-4.02,7.35-4.17,7.55
		s-1.57,2.56-2.75,4.86c-1.18,2.31-1.39,9.54-1.07,10.05c0,0,0,0,0.4,0.1c5.36,1.27,5.36,1.27,5.36,1.27
		c4.83,3.4,9.83,6.73,11.11,7.41c1.28,0.68,5.61,0.74,6.42,0.49c0.81-0.25,4.47-2.08,6.74-2.96s8.52,1.14,9.3,1.91
		s0.64,2.95-0.78,2.49s-5.06,1.35-4.78,1.54s1.72,1.09,2.59,1.75c0.88,0.67,2.45,5.05,2.76,7.18c0.31,2.13-0.11,7.89-0.17,8.02
		c-0.06,0.13-1.12-0.77-2.27-2.22c-1.15-1.45-4.22-5.44-4.34-5.66c-0.12-0.22-1.06-2.27-1.92-4.03c0,0,0,0-2.86-0.09
		c-2.55-0.08-2.55-0.08-2.55-0.08c-2.81,0.07-7.27,0.14-9.91,0.16c-2.64,0.02-11.21-2.24-13.26-3.31c-2.05-1.07-7.69-6.18-8.97-7.7
		c-1.28-1.52-6.51-5.25-8.62-4.61c-2.1,0.64-5.53,2.85-2.75,3.42s5.43,6.57,3.19,6.41c-2.24-0.16-8.06-0.49-8.09-0.38
		c-0.03,0.11,1.54,1.56,3.54,3c2,1.44,6.98,8.23,8.19,10.31s2.9,8.21,2.81,8.27c-0.09,0.07-0.71-0.06-1.19-0.43
		c-0.48-0.37-3.29-2.84-5.28-4.57c0,0,0,0-2.75-0.02c-0.88-0.01-0.88-0.01-0.88-0.01c-0.94-1.14-2.71-3.3-3.92-4.81
		c-1.21-1.5-5.58-6.1-6.81-7.07c0,0,0,0-1.26-0.24c-3.43-0.65-5.98-2.51-7.85-5.27c-1.33-1.97-1.33-1.97-1.33-1.97
		c-1.98,0.26-5.57,1.36-7.99,2.45c-2.42,1.09-14.09,6.7-20.73,9.75c-6.64,3.05-26.75,7.86-28.5,8.02c0,0,0,0-1.56,0.28
		c-0.53,0.1-0.53,0.1-0.53,0.1c-0.49,0.5-2.48,4.76-4.43,9.46c-1.95,4.7-9.16,16.34-9.25,16.66c-0.1,0.32-0.4,2.98-0.6,5.18
		s-1.97,9.98-3.17,12.42c-1.2,2.44-7.91,7.04-9.07,7.51c-1.16,0.47-4.81,1.65-5.44,1.91c-0.64,0.26-3.66,3.99-5.71,6.94
		c-2.04,2.95-8.12,17.68-10.15,25.42c0,0,0,0,1.65,7.52c2.1,9.54,2.1,9.54,2.1,9.54c5.66,8.75,12.42,17.53,15.02,19.53
		s12.95,3.56,15.15,3.47c2.21-0.09,8.78,2.4,10.06,3.36c0,0,0,0,1.19,0.85c0.74,0.53,0.74,0.53,0.74,0.53
		c0.86,0.49,3.4,1.76,5.64,2.82c2.24,1.06,6.78,6.56,6.97,7.35s-1.94,1.85-4.02,0.48s-6.71,2.58-6.52,3.7s0.42,4.16,0.31,4.49
		s-0.71,1.04-1.03,0.88c-0.32-0.17-1.34-1.09-1.7-1.53c-0.36-0.44-1.98-1.69-2.66-1.97c-0.68-0.29-2.57,1.82-3.24,2.51
		c-0.66,0.69-4.71,1.79-6.86,1.98s-8.67-2.35-10.14-2.96c-1.47-0.61-6.4-0.65-7.13-0.78c-0.74-0.13-3.26-0.8-3.98-1.03
		c-0.72-0.23-2.96-0.6-2.93-0.17c0.03,0.43-0.64,3.37-1.57,5.87s-7.27,2.89-7.52,2.83c-0.25-0.06-2.53-1.52-4.62-2.94
		c-2.1-1.42-8-6.86-8.75-8.6s-0.75-7.83-0.51-9.25s1.57-6.7,2-8.7s-0.11-9.67-0.46-12.4c-0.34-2.73-1.97-12.27-2.7-15.18
		c-0.72-2.9-4.32-11.24-4.94-12.54c-0.61-1.3-2.32-6.56-2.64-8.73s2.05-9.2,2.91-10.96c0.85-1.77-0.9-7.11-5.92-7.65
		c-5.02-0.55-18.2,6.37-19.58,7.84c-1.38,1.47-3.82,10.83-4.63,16.11c-0.81,5.28-1.18,21.45-1.2,23.98
		c-0.02,2.53,0.14,9.48,0.29,9.81c0.15,0.33,1.18,0.86,1.73,0.95c0.55,0.1,3.19,0.79,4.64,1.25c1.46,0.46,4.29,3.77,4.55,3.97
		c0.26,0.21,2.23,1.43,3.73,2.44s3.87,5.43,3.94,5.77s-0.15,1.69-0.43,2.26c-0.28,0.57-2.67-0.09-3.76-0.4
		c-1.09-0.32-4.16,0.24-4.3,0.97c-0.14,0.73-3.72,0.93-4.65,0.82c0,0,0,0-0.84-0.11c-0.84-0.11-0.84-0.11-0.84-0.11
		c-0.93-0.14-1.81,0.18-1.95,0.71c-0.14,0.53-0.56,1.97-0.63,2.02c-0.07,0.05-1.42-0.42-2.84-1.13c-1.43-0.72-5.84-1.19-6.22-1.11
		c-0.37,0.08-1.96,0.85-2.88,1.27s-4.67,0.39-5.92,0.09c-1.25-0.3-3.68-4.8-4.14-6.39c-0.46-1.59-3.05-8.48-4.42-11.91
		c-1.37-3.42-5.57-16.18-6.03-20.86c-0.46-4.68,5.55-16.99,6.52-18.21s3.55-4.73,3.67-5.02c0.12-0.29,0.36-1.1,0.3-1.15
		c-0.06-0.06-0.71,0.02-1.3,0.29c-0.59,0.27-2.47,0.74-2.43,0.25c0.03-0.49,0.95-3.3,1.77-5.44c0.81-2.14,5.6-8.11,6.82-9.68
		s3.22-7.09,3.42-7.81c0.2-0.72,2-4.53,3.52-6.86s9.57-5.1,10.93-5.28s6.38-1.21,8.14-1.8c1.75-0.59,9.09-5.59,12.91-8.51
		c3.82-2.92,15.25-11.06,16.69-11.86c1.45-0.8,5.9-3.59,6.61-4.58c0.71-0.99-3.53-6.31-7.87-10.08c-4.34-3.77-21.98-8.76-26.03-9.04
		c0,0,0,0-3.68,0.04c-2.83,0.03-2.83,0.03-2.83,0.03c-2.31-1.59-5.85-4.51-7.86-6.49c-2.01-1.98-10.08-7.62-12.84-9.01
		s-16.55-2.55-23.56-2.56c-7.01-0.01-29.52-0.27-34.45-0.39c-4.94-0.12-21.99-0.53-26.92-0.53c-4.93,0-20.14,3.63-23.08,5.26
		c-2.93,1.63-5.75,10.9-5.62,12.29c0.13,1.4,2.33,7.01,3.9,9.57c1.57,2.56,9.83,11.45,13.89,14.69c4.06,3.24,19.76,11.08,24.11,12.9
		c4.35,1.82,16.28,6.96,16.89,7.3s2.15,1.36,2.11,1.5s-0.71,0.47-1.4,0.44c-0.69-0.03-6.53-1.66-11.54-3.19s-22.79-8.04-28.41-10.91
		c-5.62-2.87-20.8-17.3-24.08-21.45c-3.27-4.15-8.22-21.83-8.84-27.28c-0.62-5.46,5.5-22.86,8.27-26.96s20.3-16.69,29.54-21.79
		c0,0,0,0,9.1-3.14c22.28-7.69,38.06-14.3,38.06-14.3c15.22-6.37,30.59-12.67,34.15-14c3.56-1.32,14.98-5.83,17.5-6.92
		s10.75-7.86,13.85-10.31c3.11-2.46,19.78-11.26,29.17-15.51c0,0,0,0,9.36-1.44c6.07-0.94,12.02-0.95,17.79,2
		c5.66,2.89,5.66,2.89,5.66,2.89c6.58-1.24,15.86-3.54,20.63-5.12s22.42-6.83,28.69-7.99s27.85,0.19,33.66,1.21
		c5.81,1.02,26.13,3.92,32.35,3.59c6.22-0.33,21.85-10.73,23.71-13.05c1.87-2.32,7.85-13.35,10.73-18.25s19.71-17.33,26.69-20.32
		c0,0,0,0,6.94-0.8c3.67-0.42,3.67-0.42,3.67-0.42c4.06-0.21,7.87-0.53,8.46-0.71c0.59-0.18,4.24-3.01,6.95-5.34c0,0,0,0,2.71-1.74
		c3.99-2.56,6.88-2.42,10.1,0.97c4.04,4.27,4.04,4.27,4.04,4.27c5.79,1.36,14.76,2.61,19.93,2.77c0,0,0,0,4.69-0.2
		c1.79-0.08,1.79-0.08,1.79-0.08c1.92-0.92,5.15-2.33,7.18-3.12c2.03-0.79,10.23-0.22,13.03-0.11c0,0,0,0,2.53,0.33
		c2.56,0.33,2.56,0.33,2.56,0.33c2.76,0.7,8.53,3.43,12.81,6.05c4.28,2.63,11.64,15.41,12.26,17.14c0.62,1.73,1.93,7.25,1.86,8.34
		s-3.24,3.74-4.54,4.61c-1.3,0.87-2.42,5.78-2.6,6.63C546.06,188.35,544.98,191.9,544.72,192.46z"/>
</g>
</svg>
